<svg xmlns="http://www.w3.org/2000/svg" width="482.079" height="168.68" viewBox="0 0 361.56 126.52"><rect y="85.39" width="361.33" height="41.13" rx="20.56" ry="20.56" fill="#1d1d1b"/><path d="M25.71 113.36V98.3c0-4.5 3.18-7.47 14.98-7.47s14.98 2.97 14.98 7.47v3.78h-9.24v-3.24c0-1.61-1.02-2.82-5.75-2.82s-5.75 1.21-5.75 2.82v13.97c0 1.61 1.02 2.82 5.75 2.82s5.75-1.21 5.75-2.82v-3.24h9.24v3.78c0 4.5-3.18 7.47-14.98 7.47s-14.98-2.97-14.98-7.47zM95.4 115.22v5.08H71.23V91.37h9.24v23.85H95.4zM125.58 114.62H115.2l-1.98 5.68h-9.19l11.41-28.93h10.3l11.32 28.93h-9.61l-1.86-5.68zm-1.66-5.08-3.36-10.26-3.58 10.26h6.94zM169.88 101.58v-3.66c0-1.18-1.12-2.01-5.2-2.01s-5.2.74-5.2 1.92v2.66c0 4.42 19.73 1.43 19.73 10.26v3.36c0 4.17-2.99 6.72-14.53 6.72s-14.53-3-14.53-7.05v-3.69h9.24v3.66c0 1.18 1.12 2.01 5.3 2.01s5.3-.74 5.3-1.92v-2.66c0-4.42-19.61-1.43-19.61-10.26v-3.36c0-4.16 3.49-6.72 14.31-6.72S179 93.85 179 97.89v3.69h-9.11zM214.16 101.58v-3.66c0-1.18-1.12-2.01-5.2-2.01s-5.2.74-5.2 1.92v2.66c0 4.42 19.73 1.43 19.73 10.26v3.36c0 4.17-2.99 6.72-14.53 6.72s-14.53-3-14.53-7.05v-3.69h9.24v3.66c0 1.18 1.12 2.01 5.3 2.01s5.3-.74 5.3-1.92v-2.66c0-4.42-19.61-1.43-19.61-10.26v-3.36c0-4.16 3.49-6.72 14.31-6.72s14.31 3.01 14.31 7.05v3.69h-9.11zM248.29 91.37v28.93h-9.24V91.37h9.24zM263.83 113.36V98.3c0-4.5 3.18-7.47 14.98-7.47s14.98 2.97 14.98 7.47v3.78h-9.24v-3.24c0-1.61-1.02-2.82-5.75-2.82s-5.75 1.21-5.75 2.82v13.97c0 1.61 1.02 2.82 5.75 2.82s5.75-1.21 5.75-2.82v-3.24h9.24v3.78c0 4.5-3.18 7.47-14.98 7.47s-14.98-2.97-14.98-7.47zM328.74 101.58v-3.66c0-1.18-1.12-2.01-5.2-2.01s-5.2.74-5.2 1.92v2.66c0 4.42 19.73 1.43 19.73 10.26v3.36c0 4.17-2.99 6.72-14.53 6.72s-14.53-3-14.53-7.05v-3.69h9.24v3.66c0 1.18 1.12 2.01 5.3 2.01s5.3-.74 5.3-1.92v-2.66c0-4.42-19.61-1.43-19.61-10.26v-3.36c0-4.16 3.49-6.72 14.31-6.72s14.31 3.01 14.31 7.05v3.69h-9.11z" fill="#fff"/><path d="M62.94 0h9.38v26.35c0 22.13 15.18 40.72 35.69 45.92l.03 14.98C82.43 83 62.88 60.71 62.9 33.93L62.93 0zM45.11 0h-9.38v26.35c0 22.13-15.18 40.72-35.69 45.92L0 87.25C25.61 83 45.16 60.71 45.14 33.93L45.11 0zm2.19 0h13.41v87.28H47.3V0zm212.53 53.38-8.31-27.12-7.43 27.08 15.73.04zm-19.49 13.54-5.55 20.25h-15.36L240.89 9.4c1.38-4.63 5.64-7.8 10.47-7.8 4.84 0 9.1 3.17 10.5 7.8l23.54 77.89-15.25-.11-6.17-20.21-23.63-.03zm-74.62-13.54-8.31-27.12-7.43 27.08 15.73.04zm-19.49 13.54-5.55 20.25h-15.36L146.78 9.4c1.38-4.63 5.64-7.8 10.47-7.8 4.84 0 9.1 3.17 10.49 7.8l23.54 77.89-15.25-.11-6.17-20.21-23.63-.03zm177.29-14.76c9.7-3.72 16.59-13.12 16.59-24.13 0-14.27-11.57-25.83-25.84-25.83l-10-.05C295 2.11 289.64 7 289.64 16.78V86.8h14.63V16.34h9.02c6.87-.02 12.45 5.52 12.47 12.39.02 6.05-4.31 11.23-10.27 12.29-1.03.25-2.06.55-3.02 1.13-5.09 3.07-6.73 9.69-3.66 14.78l18.37 30.37h15.46l-19.98-32.86c-.43-.71-.2-1.64.51-2.07.13-.07.27-.13.42-.15l-.07-.03zM179.51 16.75V2.27h51.05v14.48H212.4l-.05 70.54h-14.63V16.82l-18.21-.08zM346.93 2.2h14.63v85.09h-14.63V2.2z" fill="#b31a1a" fill-rule="evenodd"/></svg>