<?xml version="1.0" encoding="UTF-8"?><svg id="b" xmlns="http://www.w3.org/2000/svg" width="808.84" height="80.49" viewBox="0 0 808.84 80.49"><g id="c"><path d="M769.16,0h-243.73l.19,80.49h243.54c22,0,39.68-17.87,39.68-40.24S791.17,0,769.16,0Z" fill="#060606"/><path d="M0,40.24c0,22.38,17.87,40.24,40.25,40.24h485.19V0H40.25C17.87,0,0,17.87,0,40.24Z" fill="#060606"/><path d="M549.43,11.85c.83,1.43,1,3.28.52,5.58-.07.37-.4.63-.77.63l-8.63.11-92.3.05c-.71,0-1.29-.58-1.29-1.3h0v-3.68c0-.73.59-1.32,1.33-1.32h0l101.14-.08Z" fill="#d51312"/><path d="M20.49,40.12c-.03-16.01,14.31-26.06,29.75-23.16.2.03.34.2.34.4v11.51c.01.1-.07.18-.17.18-.03,0-.06,0-.09-.02-8.79-4.58-18.71,1.51-18.69,11.08.01,9.57,9.95,15.62,18.73,11.02.1-.04.21,0,.25.08.01.03.02.05.02.08l.03,11.5c0,.2-.14.37-.34.4-15.43,2.95-29.79-7.06-29.81-23.07Z" fill="#fff"/><path d="M687.04,62.94c-.11-5.16-.04-10.03.2-14.61.34-6.59,2.72-10.32,9.13-11.16,3.86-.5,10.98-1.28,21.36-2.35,1.39-.14,2.51-1.2,2.72-2.58.23-1.46.2-2.96-.08-4.52-.21-1.14-1.16-2-2.31-2.09-6.94-.58-13.3-.46-19.09.38-.83.11-1.46.83-1.45,1.67v4.19c0,.75-.61,1.37-1.37,1.37h-8.32c-.84,0-1.52-.68-1.51-1.51,0-.05,0-.1,0-.15,1.02-10.57.38-15.65,13.18-16.29,9.3-.47,17.69-.34,25.17.4,7.7.76,6.92,16.66,5.82,22-.91,4.38-3.76,6.94-8.55,7.69-1.79.29-8.95.97-21.48,2.05-1.19.1-2.22.89-2.63,2.01l-.52,1.44c-.25.69.1,1.45.79,1.7.14.05.29.08.45.08h32.63c.25,0,.46.2.46.46v9.89c0,.27-.22.48-.48.48h-43.56c-.31,0-.56-.25-.57-.56Z" fill="#fff"/><path d="M782.58,52.37c-.02,6.39-5.22,11.56-11.61,11.53l-23.32-.08c-6.39-.02-11.56-5.22-11.53-11.61l.09-25.63c.02-6.39,5.22-11.56,11.61-11.53l23.32.08c6.39.02,11.56,5.22,11.53,11.61l-.09,25.63ZM771.61,33.11c0-3.2-2.58-5.8-5.78-5.8l-12.83-.02c-3.2,0-5.8,2.58-5.8,5.78h0s-.02,12.8-.02,12.8c0,3.2,2.58,5.8,5.78,5.8l12.83.02c3.2,0,5.8-2.58,5.8-5.78h0s.02-12.8.02-12.8Z" fill="#fff"/><path d="M325.71,48.91c0-.24-.2-.43-.43-.43-.14,0-.27.07-.35.19-2.97,4.44-12.91,3.43-16.9,2.76-6.15-1.06-6.37-6.17-6.43-11.71-.05-5.91.73-11.07,7.49-11.8,3.35-.37,6.35-.47,9.02-.3,2.61.16,4.69,1.2,6.26,3.11.18.21.5.24.71.07.11-.09.18-.23.18-.38l-.03-11.59c0-.19.13-.35.32-.35,0,0,0,0,.01,0h7.59c.2-.01.35.15.35.34l.06,31.84c0,.44-.35.8-.8.81l-6.37.03c-.37,0-.67-.31-.67-.68v-1.88ZM325.15,37.98c-.02-2.26-1.86-4.09-4.13-4.07h0l-7.13.05c-2.26.02-4.09,1.86-4.07,4.13l.02,3.36c.02,2.26,1.86,4.09,4.13,4.07h0l7.13-.05c2.26-.02,4.09-1.86,4.07-4.13l-.02-3.36Z" fill="#fff"/><path d="M666.83,45.47h9.65c.2,0,.36.14.38.33.52,4.61.21,8.69-.95,12.24-1.64,5.01-7.63,5.73-12.13,5.86-5.62.16-12.09.09-19.4-.22-7.45-.3-11.3-4.2-11.55-11.67-.36-10.64-.24-19.55.35-26.71.54-6.58,4.83-8.3,11.18-9.04,8-.94,16-.89,23.98.14,8.13,1.05,8.58,9.8,7.98,16.34-.02.22-.21.39-.43.39h-9.51c-.23,0-.42-.18-.42-.41,0-.02,0-.04,0-.05.4-3.08-.68-4.73-3.24-4.96-3.79-.35-8.55-.42-14.28-.22-3.2.12-4.89,1.78-5.07,4.98-.2,3.6-.27,7.18-.22,10.74.08,4.92-.48,8.59,5.11,9.09,3.88.34,8.74.32,14.6-.06,2.82-.19,4.03-2.31,3.6-6.37-.03-.19.11-.36.3-.39.02,0,.04,0,.05,0Z" fill="#fff"/><path d="M588.11,51.94c.69,0,1.31-.76,1.86-2.28,3.97-11.05,7.88-22.02,11.74-32.89.07-.2.25-.33.46-.33h10.79c.09,0,.16.07.16.16,0,.02,0,.04-.01.06l-16.59,45.84c-.13.36-.44.63-.82.7-.42.08-2.93.12-7.51.13-4.59,0-7.09-.03-7.51-.1-.38-.07-.69-.33-.82-.7l-16.73-45.79c-.03-.08,0-.18.09-.22.02,0,.04-.01.06-.01l10.79-.04c.2,0,.39.13.46.33,3.89,10.86,7.83,21.81,11.84,32.85.55,1.52,1.14,2.28,1.77,2.28Z" fill="#fff"/><rect x="617.47" y="16.4" width="10.78" height="47.15" rx=".54" ry=".54" fill="#fff"/><path d="M539.79,24.33l9.32.13c.37,0,.7.25.81.62.54,1.91.43,3.77-.32,5.58l-101.14-.03c-.71,0-1.28-.57-1.28-1.28h0v-3.78c0-.71.58-1.29,1.29-1.29h0l91.31.05Z" fill="#f43207"/><path d="M88.16,39.69c.04-5.91.92-11.18,8.23-11.8,2.52-.22,5.79-.3,9.82-.24,7.05.11,13.05.8,12.96,9.01-.01.46-.4.83-.86.82l-6.44-.06c-.48,0-.92-.27-1.14-.7-1.62-3.28-5.45-2.92-8.99-2.78-4.26.15-5.15,2-5.16,5.81-.03,3.79.85,5.64,5.11,5.84,3.53.18,7.37.56,9.02-2.69.22-.42.66-.68,1.14-.68h6.44c.46-.01.84.36.85.82.01,8.21-6,8.84-13.04,8.88-4.02.02-7.29-.09-9.82-.33-7.31-.7-8.15-5.97-8.12-11.89Z" fill="#fff"/><path d="M154.46,43.54c0,4.54-3.68,8.22-8.22,8.22h-15.53c-4.54,0-8.22-3.68-8.22-8.22v-7.56c0-4.54,3.68-8.22,8.22-8.22h15.53c4.54,0,8.22,3.68,8.22,8.22v7.56ZM146.25,38.2c.01-2.3-1.84-4.17-4.14-4.18l-7.08-.04c-2.3-.01-4.17,1.84-4.18,4.14l-.02,3.24c-.01,2.3,1.84,4.17,4.14,4.18l7.08.04c2.3.01,4.17-1.84,4.18-4.14h0l.02-3.24Z" fill="#fff"/><path d="M298.21,43.58c-.02,4.56-3.73,8.25-8.29,8.23l-15.43-.05c-4.56-.02-8.25-3.73-8.23-8.29l.03-7.51c.02-4.56,3.73-8.25,8.29-8.23l15.43.05c4.56.02,8.25,3.73,8.23,8.29l-.03,7.51ZM290.06,38.35c.02-2.4-1.91-4.35-4.31-4.37l-6.88-.05c-2.4-.02-4.35,1.91-4.37,4.31h0s-.02,2.93-.02,2.93c-.02,2.4,1.91,4.35,4.31,4.37l6.88.05c2.4.02,4.35-1.91,4.37-4.31h0s.02-2.93.02-2.93Z" fill="#fff"/><path d="M432.86,40.59c-.03.49-.43.87-.92.87h-20.26c-.64,0-1.16.52-1.16,1.16,0,.13.02.26.06.38l.61,1.77c.34.98,1.26,1.64,2.3,1.64h8.68c.6,0,1.16-.28,1.52-.75l.9-1.19c.19-.25.49-.4.81-.4h6.68c.31,0,.57.26.57.58,0,.02,0,.04,0,.05-.43,4.07-2.82,6.31-7.18,6.7-7.11.63-12.57.63-16.38-.01-4.19-.7-6.39-3.3-6.6-7.79-.28-5.78-1.35-13.86,6.3-15.33,4.04-.78,8.7-.98,13.98-.61,9.06.62,10.6,4.54,10.12,12.91ZM411.57,37.07l12.22-.1c.43,0,.77-.35.77-.77,0,0,0,0,0-.01v-.4c-.02-1.7-1.88-3.06-4.17-3.04l-5.46.05c-2.29.02-4.14,1.41-4.12,3.11,0,0,0,0,0,0v.4c0,.42.35.76.77.76Z" fill="#fff"/><path d="M166.2,30.85c0,.28.23.51.5.51.11,0,.21-.04.3-.1.85-.63,1.25-1.58,2.57-2.34,4.06-2.35,13.03-1.95,16.34,2.85.16.23.48.28.71.12.06-.04.11-.09.14-.15,2.97-5.31,12.24-4.69,16.57-2.71,3.01,1.38,4.55,4.01,4.62,7.88.08,4.76.11,9.36.09,13.8,0,.44-.36.8-.8.8h-6.78c-.41.02-.75-.31-.76-.72,0,0,0,0,0-.01v-12.41c0-2.43-1.97-4.4-4.4-4.4h-2.85c-2.79,0-5.06,2.27-5.06,5.06v11.84c0,.35-.29.63-.65.63h-6.96c-.33,0-.59-.27-.59-.59v-11.95c0-2.82-2.29-5.09-5.1-5.09-.18,0-.37.01-.55.03-.41.04-.68.05-.81.04-3.05-.25-5.73,2.02-5.98,5.07-.01.17-.02.34-.02.51l.1,11.18c0,.44-.36.8-.8.8h-6.84c-.4,0-.72-.32-.72-.72v-21.65c-.01-.45.35-.81.8-.81h6.21c.4,0,.72.32.72.72v1.85Z" fill="#fff"/><path d="M220.42,30.82c0,.28.23.51.5.51.11,0,.21-.04.3-.1.85-.63,1.25-1.58,2.57-2.34,4.06-2.35,13.02-1.94,16.32,2.85.16.23.48.28.71.12.06-.04.11-.09.14-.15,2.99-5.31,12.23-4.69,16.56-2.71,3.01,1.38,4.55,4.01,4.63,7.88.08,4.76.11,9.35.08,13.79,0,.44-.36.8-.8.8h-6.77c-.41,0-.75-.33-.75-.75h0v-12.4c-.01-2.43-1.98-4.4-4.41-4.4h-2.85c-2.79.02-5.05,2.28-5.05,5.07v11.83c0,.35-.29.63-.65.63h-6.94c-.32,0-.59-.26-.59-.58v-11.95c-.02-2.82-2.3-5.09-5.12-5.09-.18,0-.37.01-.55.03-.41.04-.68.05-.81.04-3.04-.25-5.71,2.02-5.96,5.07-.01.17-.02.34-.02.51l.1,11.17c0,.44-.35.79-.78.8h-6.84c-.4.01-.72-.31-.72-.71v-21.64c-.01-.44.34-.8.78-.81h6.21c.4-.01.72.31.72.71h0v1.85Z" fill="#fff"/><path d="M369.37,43.6c0,4.53-3.68,8.19-8.21,8.18h0l-15.53-.03c-4.53,0-8.19-3.68-8.18-8.21v-7.61c.02-4.53,3.7-8.19,8.22-8.18h0l15.53.03c4.53,0,8.19,3.68,8.18,8.21v7.61ZM361.2,38.16c.01-2.28-1.82-4.13-4.1-4.15h0l-7.23-.04c-2.28-.01-4.13,1.82-4.15,4.1h0s-.02,3.31-.02,3.31c-.01,2.28,1.82,4.13,4.1,4.15h0l7.23.04c2.28.01,4.13-1.82,4.15-4.1h0s.02-3.31.02-3.31Z" fill="#fff"/><path d="M374.29,28.28h6.25c.36-.01.65.28.65.63,0,0,0,0,0,.01v1.92c0,.29.25.53.53.53.13,0,.26-.05.35-.15.83-.81,1.48-2.1,2.97-2.66,7.45-2.82,16.05-.62,14.41,9.36-.04.2-.21.35-.42.35h-6.99c-.2,0-.36-.16-.36-.35,0-.01,0-.03,0-.04.24-2.63-1.12-3.97-4.1-4.02-3.7-.07-5.63,1.56-5.79,4.89-.14,2.83-.16,6.78-.06,11.83,0,.47-.38.87-.86.87,0,0,0,0-.01,0h-6.58c-.45.01-.81-.34-.81-.78h0s-.01-21.55-.01-21.55c0-.47.37-.85.83-.85h0Z" fill="#fff"/><path d="M51.54,38.73v-8.35c0-.25.2-.46.46-.46h18.91c.25,0,.46.2.46.45,0,.12-.05.23-.13.32l-8.35,8.35c-.09.09-.2.14-.33.14h-10.56c-.25,0-.46-.2-.46-.46h0Z" fill="#fff"/><path d="M549.43,36.87c.59,1.59.75,3.47.47,5.63-.04.28-.28.48-.56.48h-101.81c-.26,0-.47-.21-.48-.48l-.09-5.55,102.47-.08Z" fill="#f1cb3c"/><path d="M51.54,50.14v-8.41c0-.22.18-.39.39-.39h10.61c.1,0,.2.04.28.11l8.41,8.41c.15.15.15.4,0,.55-.07.07-.18.12-.28.12h-19.02c-.22,0-.39-.18-.39-.39Z" fill="#fff"/><rect x="447" y="49.48" width="102.98" height="5.79" rx=".56" ry=".56" fill="#68e72f"/><rect x="447.12" y="61.95" width="102.91" height="5.87" rx=".64" ry=".64" fill="#54baea"/></g></svg>